HIERARCHY
ROOT root
{
	OFFSET	0	13.1	24.9
	CHANNELS 6  Xposition Yposition Zposition Xrotation Yrotation Zrotation
	JOINT spine_1
	{
		OFFSET	0	9.99999	0
		CHANNELS 3  Xrotation Yrotation Zrotation
		JOINT spine_2
		{
			OFFSET	0	112	-10
			CHANNELS 3  Xrotation Yrotation Zrotation
			JOINT spine_3
			{
				OFFSET	0	206.5	19.3
				CHANNELS 3  Xrotation Yrotation Zrotation
				JOINT spine_4
				{
					OFFSET	0	110.4	14.6
					CHANNELS 3  Xrotation Yrotation Zrotation
					JOINT neck_1
					{
						OFFSET	0	71.8	-50.3
						CHANNELS 3  Xrotation Yrotation Zrotation
						JOINT neck_2
						{
							OFFSET	0	86.2	-25.8
							CHANNELS 3  Xrotation Yrotation Zrotation
							JOINT head_ee
							{
								OFFSET	0	179.8	-8.7
								CHANNELS 3  Xrotation Yrotation Zrotation
								End Site
								{
									OFFSET	1	0	0
								}
							}
						}
					}
					JOINT left_clavicle
					{
						OFFSET	-43.2	22.4	-70.8
						CHANNELS 3  Xrotation Yrotation Zrotation
						JOINT left_shoulder
						{
							OFFSET	-93.9	-5.79999	48.7
							CHANNELS 3  Xrotation Yrotation Zrotation
							JOINT left_elbow
							{
								OFFSET	-291.4	-30.8	15.2
								CHANNELS 3  Xrotation Yrotation Zrotation
								JOINT left_lowarm_twist
								{
									OFFSET	-110.7	-3.89999	13.6
									CHANNELS 3  Xrotation Yrotation Zrotation
									JOINT left_hand
									{
										OFFSET	-110.7	-3.89999	13.6
										CHANNELS 3  Xrotation Yrotation Zrotation
										JOINT left_ee
										{
											OFFSET	-80.8	-5.10001	12.1
											CHANNELS 3  Xrotation Yrotation Zrotation
											End Site
											{
												OFFSET	1	0	0
											}
										}
									}
								}
							}
						}
					}
					JOINT right_clavicle
					{
						OFFSET	43.2	22.4	-70.8
						CHANNELS 3  Xrotation Yrotation Zrotation
						JOINT right_shoulder
						{
							OFFSET	93.9	-5.79999	48.7
							CHANNELS 3  Xrotation Yrotation Zrotation
							JOINT right_elbow
							{
								OFFSET	291.4	-30.8	15.2
								CHANNELS 3  Xrotation Yrotation Zrotation
								JOINT right_lowarm_twist
								{
									OFFSET	110.7	-3.89999	13.6
									CHANNELS 3  Xrotation Yrotation Zrotation
									JOINT right_hand
									{
										OFFSET	110.7	-3.89999	13.6
										CHANNELS 3  Xrotation Yrotation Zrotation
										JOINT right_ee
										{
											OFFSET	80.8	-5.10001	12.1
											CHANNELS 3  Xrotation Yrotation Zrotation
											End Site
											{
												OFFSET	1	0	0
											}
										}
									}
								}
							}
						}
					}
				}
			}
		}
	}
	JOINT left_hip
	{
		OFFSET	-82.8	-127.5	0.300001
		CHANNELS 3  Xrotation Yrotation Zrotation
		JOINT left_knee
		{
			OFFSET	-28.2	-396.7	2.2
			CHANNELS 3  Xrotation Yrotation Zrotation
			JOINT left_ankle
			{
				OFFSET	-11.7	-411.3	35.4
				CHANNELS 3  Xrotation Yrotation Zrotation
				JOINT left_toes
				{
					OFFSET	0	-60	-88.6
					CHANNELS 3  Xrotation Yrotation Zrotation
					JOINT left_foot_ee
					{
						OFFSET	-22.5	-16.5	-42.2
						CHANNELS 3  Xrotation Yrotation Zrotation
						End Site
						{
							OFFSET	1	0	0
						}
					}
				}
			}
		}
	}
	JOINT right_hip
	{
		OFFSET	82.8	-127.5	0.300001
		CHANNELS 3  Xrotation Yrotation Zrotation
		JOINT right_knee
		{
			OFFSET	28.2	-396.7	2.2
			CHANNELS 3  Xrotation Yrotation Zrotation
			JOINT right_ankle
			{
				OFFSET	11.7	-411.3	35.4
				CHANNELS 3  Xrotation Yrotation Zrotation
				JOINT right_toes
				{
					OFFSET	0	-60	-88.6
					CHANNELS 3  Xrotation Yrotation Zrotation
					JOINT right_foot_ee
					{
						OFFSET	22.5	-16.5	-42.2
						CHANNELS 3  Xrotation Yrotation Zrotation
						End Site
						{
							OFFSET	1	0	0
						}
					}
				}
			}
		}
	}
}
MOTION
Frames: 7
Frame Time: 0.02
2540.66199632 750.773 -1538.80436226 26.7152082746 69.4109463152 -27.4162388916 -2.95584 0.471266 1.52491 -2.95463 0.373289 1.5518 -2.94253 -0.0431211 1.59547 -2.94602 0.209363 1.58227 4.88065 5.69034 -1.53472 5.05133 11.1068 -1.47529 -0.0 0.0 -0.0 2.06197 4.42681 4.32751 -18.3543 -26.2677 67.2072 0.379622 -10.6505 0.0353854 29.4747 0.0822929 -3.72304 -1.28873 19.1376 0.00990294 -0.0 0.0 -0.0 4.4911 5.93943 -8.37723 2.40991 36.6608 -63.3641 1.72372 40.4899 -0.635784 -0.510716 0.0182743 -0.0626624 2.1264 -24.8113 -22.5126 0.0 0.0 0.0 -3.48687 15.928 -6.72819 -22.5172 0.257252 3.42368 3.67691 13.1033 -0.534938 20.842 -0.0 -0.0 -0.0 0.0 -0.0 8.66555 36.1215 -10.2597 -13.3093 -0.31534 -2.01357 12.61 -15.1146 1.79052 -35.0103 0.0 0.0 0.0 0.0 0.0 
2527.29303347 754.19 -1529.39093331 27.6181755385 70.0599815976 -27.8319085521 -2.9322 0.60435 1.47665 -2.93113 0.509173 1.51211 -2.91569 0.0992092 1.59243 -2.91906 0.349428 1.55679 4.97423 6.31442 -1.3558 5.16922 12.0158 -1.25082 -0.0 0.0 -0.0 1.92235 4.92641 4.10989 -19.062 -26.2696 68.1617 0.337144 -9.48173 0.0279605 29.377 0.0851896 -3.7109 -1.34536 20.7055 0.377172 -0.0 0.0 -0.0 4.87562 6.26153 -9.14316 3.19743 36.1007 -63.9522 2.12062 46.4049 -0.909092 0.0356574 -0.00125512 0.00438091 1.94202 -23.3212 -20.9799 0.0 0.0 0.0 -1.88273 15.4712 -6.83296 -22.3205 0.260859 3.39371 2.96966 12.9773 -0.432778 20.7736 -0.0 -0.0 -0.0 0.0 -0.0 7.63471 36.8654 -10.7366 -12.8749 -0.312477 -1.94698 12.7708 -14.0272 1.80817 -34.9386 0.0 0.0 0.0 0.0 0.0 
2514.27161057 752.396 -1521.62487504 29.0920731101 70.190129775 -29.9577148828 -3.05125 0.70189 1.49828 -3.05021 0.60514 1.53989 -3.03176 0.181383 1.64453 -3.03527 0.438796 1.59527 4.91311 6.76978 -1.23124 5.12581 12.6943 -1.08353 -0.0 0.0 -0.0 1.79305 5.30322 3.90363 -19.629 -26.2697 68.8818 0.308649 -8.69315 0.0234599 29.3533 0.0858898 -3.70795 -1.37556 21.8529 0.716032 -0.0 0.0 -0.0 4.81318 6.28879 -9.01422 2.95077 35.3084 -63.011 2.45695 50.5848 -1.16113 0.382216 -0.0133104 0.0469996 1.80133 -22.063 -19.7544 0.0 0.0 0.0 -0.441844 15.0225 -7.59356 -22.0914 0.264932 3.35879 2.23136 13.0233 -0.325826 20.6462 -0.0 -0.0 -0.0 0.0 -0.0 6.81887 37.4078 -10.9558 -12.5458 -0.309971 -1.89655 12.7702 -13.2693 1.80561 -34.8921 0.0 0.0 0.0 0.0 0.0 
2503.8021459 748.314 -1518.58447592 27.8040836252 69.0202383459 -28.1603034096 -3.21843 0.785642 1.4571 -3.21752 0.691342 1.50413 -3.19717 0.269258 1.63333 -3.20051 0.523801 1.57033 3.66973 7.44231 -0.737812 3.87827 13.5416 -0.377815 -0.0 0.0 -0.0 1.67366 5.77011 3.7248 -20.3498 -26.2963 69.7086 0.36149 -10.1526 0.0321116 29.308 0.0872243 -3.70232 -1.38684 22.9583 1.1473 -0.0 0.0 -0.0 4.63669 5.47152 -8.69884 2.67551 34.162 -62.1485 3.13888 57.2416 -1.71316 1.01868 -0.0347768 0.125454 1.58092 -19.8525 -17.719 0.0 0.0 0.0 2.47126 14.9603 -8.81149 -19.2313 0.303993 2.92171 1.36641 13.167 -0.199999 20.3339 -0.0 -0.0 -0.0 0.0 -0.0 4.90107 38.02 -10.6637 -11.7629 -0.302847 -1.77663 12.8019 -12.3833 1.80737 -34.8262 0.0 0.0 0.0 0.0 0.0 
2446.09804869 753.831 -1503.86713083 25.434144107 73.0020472113 -23.7662108684 -2.45723 -0.016773 0.107395 -2.45722 -0.0235729 0.10611 -2.45726 -0.0495419 0.0967504 -2.45727 -0.0336402 0.10336 2.48444 6.28708 -2.64733 2.70417 13.2413 -2.47441 -0.0 0.0 -0.0 1.5774 8.56356 3.78494 -21.3813 -26.4311 69.5765 0.69656 -19.0373 0.116799 25.6443 0.180316 -3.24366 -1.46259 22.1259 0.333346 -0.0 0.0 -0.0 3.83519 4.14805 -7.15946 -1.82966 29.0486 -59.4115 3.31202 58.624 -1.85988 2.6283 -0.0851614 0.32487 0.708553 -9.59052 -8.55664 0.0 0.0 0.0 2.55803 20.9414 -8.85369 -11.8596 0.303816 1.79145 -2.93621 5.55619 0.433084 17.7403 -0.0 -0.0 -0.0 0.0 -0.0 -0.451462 35.028 -7.56571 -4.52128 -0.159571 -0.675352 14.5833 -12.2275 2.04465 -25.5048 0.0 0.0 0.0 0.0 0.0 
2445.94986466 753.831 -1502.06578606 25.8491994216 73.264209579 -24.1999225525 -2.45723 -0.016773 0.107395 -2.45722 -0.0235729 0.10611 -2.45726 -0.0495419 0.0967504 -2.45727 -0.0336402 0.10336 2.48444 6.28708 -2.64733 2.70417 13.2413 -2.47441 -0.0 0.0 -0.0 1.5774 8.56356 3.78494 -21.3813 -26.4311 69.5765 0.69656 -19.0373 0.116799 25.6443 0.180316 -3.24366 -1.46259 22.1259 0.333346 -0.0 0.0 -0.0 3.83519 4.14805 -7.15946 -1.82966 29.0486 -59.4115 3.31202 58.624 -1.85988 2.6283 -0.0851614 0.32487 0.708553 -9.59052 -8.55664 0.0 0.0 0.0 2.55803 20.9414 -8.85369 -11.8596 0.303816 1.79145 -2.93621 5.55619 0.433084 17.7403 -0.0 -0.0 -0.0 0.0 -0.0 -0.451462 35.028 -7.56571 -4.52128 -0.159571 -0.675352 14.5833 -12.2275 2.04465 -25.5048 0.0 0.0 0.0 0.0 0.0 
2445.82277445 753.831 -1500.42340151 26.2391307992 73.502332995 -24.6068464541 -2.45723 -0.016773 0.107395 -2.45722 -0.0235729 0.10611 -2.45726 -0.0495419 0.0967504 -2.45727 -0.0336402 0.10336 2.48444 6.28708 -2.64733 2.70417 13.2413 -2.47441 -0.0 0.0 -0.0 1.5774 8.56356 3.78494 -21.3813 -26.4311 69.5765 0.69656 -19.0373 0.116799 25.6443 0.180316 -3.24366 -1.46259 22.1259 0.333346 -0.0 0.0 -0.0 3.83519 4.14805 -7.15946 -1.82966 29.0486 -59.4115 3.31202 58.624 -1.85988 2.6283 -0.0851614 0.32487 0.708553 -9.59052 -8.55664 0.0 0.0 0.0 2.55803 20.9414 -8.85369 -11.8596 0.303816 1.79145 -2.93621 5.55619 0.433084 17.7403 -0.0 -0.0 -0.0 0.0 -0.0 -0.451462 35.028 -7.56571 -4.52128 -0.159571 -0.675352 14.5833 -12.2275 2.04465 -25.5048 0.0 0.0 0.0 0.0 0.0 
